<svg width="137" height="137" viewBox="0 0 137 137" fill="none" xmlns="http://www.w3.org/2000/svg">
<path d="M68.4967 75.9203C67.7546 75.9203 67.0125 75.7491 66.3275 75.3495L15.9227 46.1799C13.8677 44.9811 13.1826 42.3551 14.3813 40.3001C15.5801 38.2451 18.1488 37.56 20.2609 38.7588L68.4967 66.6728L116.446 38.9302C118.501 37.7314 121.127 38.4736 122.326 40.4716C123.524 42.5266 122.783 45.1522 120.785 46.351L70.7229 75.3495C69.9808 75.692 69.2387 75.9203 68.4967 75.9203Z" fill="#2639ED"/>
<path d="M68.5 127.638C66.1596 127.638 64.2188 125.698 64.2188 123.357V71.5825C64.2188 69.2421 66.1596 67.3013 68.5 67.3013C70.8404 67.3013 72.7812 69.2421 72.7812 71.5825V123.357C72.7812 125.698 70.8404 127.638 68.5 127.638Z" fill="#2639ED"/>
<path d="M68.4937 129.866C63.2991 129.866 58.3329 128.667 54.5654 126.555L24.0829 109.659C15.8058 105.092 9.29834 94.0744 9.29834 84.5986V52.2895C9.29834 42.8136 15.8058 31.8539 24.0829 27.2302L54.5654 10.3333C62.3287 5.99501 74.5445 5.99501 82.3649 10.3333L112.847 27.2302C121.125 31.7968 127.632 42.8136 127.632 52.2895V73.1819C127.632 75.5223 125.691 77.4632 123.351 77.4632C121.01 77.4632 119.07 75.5223 119.07 73.1819V52.2895C119.07 46.0103 114.217 37.7906 108.737 34.7652L78.255 17.8684C73.0604 14.9571 63.9841 14.9571 58.7895 17.8684L28.307 34.7652C22.7699 37.8477 17.9749 46.0103 17.9749 52.2895V84.5986C17.9749 90.8778 22.827 99.0983 28.307 102.124L58.7895 119.02C63.8129 121.817 73.2887 121.817 78.255 119.02C80.3099 117.878 82.9358 118.621 84.0774 120.676C85.2191 122.731 84.477 125.356 82.422 126.498C78.6545 128.667 73.6883 129.866 68.4937 129.866Z" fill="#2639ED"/>
<path d="M109.6 126.44C97.156 126.44 87.0522 116.336 87.0522 103.892C87.0522 91.4475 97.156 81.3438 109.6 81.3438C122.044 81.3438 132.148 91.4475 132.148 103.892C132.148 116.336 122.044 126.44 109.6 126.44ZM109.6 89.9062C101.894 89.9062 95.6147 96.1854 95.6147 103.892C95.6147 111.598 101.894 117.877 109.6 117.877C117.306 117.877 123.586 111.598 123.586 103.892C123.586 96.1854 117.306 89.9062 109.6 89.9062Z" fill="#2639ED"/>
<path d="M131.289 129.865C130.204 129.865 129.12 129.465 128.263 128.609L122.555 122.9C120.9 121.245 120.9 118.504 122.555 116.849C124.21 115.194 126.95 115.194 128.606 116.849L134.314 122.557C135.97 124.213 135.97 126.953 134.314 128.609C133.458 129.465 132.373 129.865 131.289 129.865Z" fill="#2639ED"/>
</svg>
