<svg width="200" height="200" viewBox="0 0 200 200" fill="none" xmlns="http://www.w3.org/2000/svg">
<g opacity="0.23" filter="url(#filter0_d_301_706)">
<rect x="40" y="20" width="120" height="120" rx="60" fill="#2E2E2E"/>
</g>
<path fill-rule="evenodd" clip-rule="evenodd" d="M80 80C80 68.9543 88.9545 60 100 60C111.046 60 120 68.9543 120 80C120 91.0457 111.046 100 100 100C88.9545 100 80 91.0457 80 80ZM96.9125 87.3102L106.913 81.0602C107.278 80.8313 107.5 80.4309 107.5 80C107.5 79.5691 107.278 79.1688 106.913 78.9398L96.9125 72.6898C96.5271 72.4487 96.0413 72.4353 95.6439 72.6569C95.2466 72.8772 95 73.2953 95 73.75V86.25C95 86.7047 95.2466 87.1228 95.6439 87.3431C95.8328 87.4481 96.0416 87.5 96.25 87.5C96.4801 87.5 96.7102 87.4365 96.9125 87.3102Z" fill="white"/>
<defs>
<filter id="filter0_d_301_706" x="0" y="0" width="200" height="200" filterUnits="userSpaceOnUse" color-interpolation-filters="sRGB">
<feFlood flood-opacity="0" result="BackgroundImageFix"/>
<feColorMatrix in="SourceAlpha" type="matrix" values="0 0 0 0 0 0 0 0 0 0 0 0 0 0 0 0 0 0 127 0" result="hardAlpha"/>
<feOffset dy="20"/>
<feGaussianBlur stdDeviation="20"/>
<feColorMatrix type="matrix" values="0 0 0 0 0 0 0 0 0 0 0 0 0 0 0 0 0 0 0.1 0"/>
<feBlend mode="normal" in2="BackgroundImageFix" result="effect1_dropShadow_301_706"/>
<feBlend mode="normal" in="SourceGraphic" in2="effect1_dropShadow_301_706" result="shape"/>
</filter>
</defs>
</svg>
