<svg width="18" height="18" viewBox="0 0 18 18" fill="none" xmlns="http://www.w3.org/2000/svg">
<path fill-rule="evenodd" clip-rule="evenodd" d="M15.3639 2.63604C18.8786 6.15076 18.8786 11.8492 15.3639 15.364C11.8491 18.8787 6.15065 18.8787 2.63593 15.364C-0.878785 11.8492 -0.878785 6.15076 2.63593 2.63604C6.15065 -0.87868 11.8491 -0.87868 15.3639 2.63604ZM13.2425 13.2426C12.852 13.6332 12.2188 13.6332 11.8283 13.2426L8.99989 10.4142L6.17147 13.2426C5.78094 13.6332 5.14778 13.6332 4.75725 13.2426C4.36673 12.8521 4.36673 12.219 4.75725 11.8284L7.58568 9L4.75725 6.17157C4.36673 5.78105 4.36673 5.14788 4.75725 4.75736C5.14778 4.36684 5.78094 4.36684 6.17147 4.75736L8.99989 7.58579L11.8283 4.75736C12.2188 4.36684 12.852 4.36684 13.2425 4.75736C13.6331 5.14788 13.6331 5.78105 13.2425 6.17157L10.4141 9L13.2425 11.8284C13.6331 12.219 13.6331 12.8521 13.2425 13.2426Z" fill="white"/>
</svg>
